<svg id="Capa_1" data-name="Capa 1" xmlns="http://www.w3.org/2000/svg" viewBox="0 0 192 115"><defs><style>.cls-1{fill:#ce3f00;}.cls-2{fill:#ffede9;}.cls-3{fill:#004c38;}</style></defs><path class="cls-1" d="M137.66,57.35a45.58,45.58,0,0,0-.85-6.66h0a45.77,45.77,0,0,0-3.6-10.63c-.45-.94-.94-1.86-1.46-2.76a45.5,45.5,0,0,0-85,22.56c0,1.47.07,2.92.2,4.35h0a45.5,45.5,0,0,0,81.7,22.94A41.16,41.16,0,0,0,131,83.66a44.72,44.72,0,0,0,3.34-6.54q.43-1.05.81-2.13c.34-1,.65-1.94.92-2.93a43,43,0,0,0,1.16-5.46c.16-1.06.28-2.14.37-3.23s.13-2.33.13-3.52C137.73,59,137.71,58.18,137.66,57.35Zm-20.24-12.8a7.39,7.39,0,0,1,0,.8,12.35,12.35,0,0,1-.27,1.79,13.05,13.05,0,0,1-2.75,5.56,12.17,12.17,0,0,1-1.82,1.77,9.88,9.88,0,0,1-1.18.86c-.73-1.33-1.45-3.36-.52-5.23a12.53,12.53,0,0,1,4.35-4.83h0a27,27,0,0,1,2.17-1.61A6.6,6.6,0,0,1,117.42,44.55Zm2.07,38.15a10.51,10.51,0,0,1-1.36.59,17.76,17.76,0,0,1-6.08.92c-.33,0-.65,0-1,0a22.43,22.43,0,0,1-2.24-.14,10.44,10.44,0,0,1-1.2-3.18c0-.17,0-.35,0-.52s.06-.45.1-.66a6,6,0,0,1,.78-2,3.91,3.91,0,0,1,.61,2.18,4.9,4.9,0,0,1-.12,1c.22,0,.43.1.64.13a6.6,6.6,0,0,0,1.14.1,2.54,2.54,0,0,0,1.67-.54,1.85,1.85,0,0,0,.66-1.51,2,2,0,0,0-.89-1.53l-.37-.26a17.3,17.3,0,0,0-2-1.12,6.06,6.06,0,0,1,3.88-1.4,6,6,0,0,1,4.59,2.11c.08.08.13.15.2.23.17.23,1.44,1.82,3.26,3.78A7.92,7.92,0,0,1,119.49,82.7Z"/><path class="cls-2" d="M189.55,63.35a37.47,37.47,0,0,0-2.81-5.85L162.38,6.72h0a5.49,5.49,0,0,0-9.86,4.8h0L167,41.19l-.24.13L142.9,2.38h0a5.5,5.5,0,0,0-9.72,4.92l-3-4.93h0a5.49,5.49,0,0,0-9.36,5.72h0L134.5,30.56l3.22,5.26,1.19,2,0,0,.79,1.28h0L141.51,42l1.31,2.16a23.9,23.9,0,0,0-2.56-1.62c-.27-.15-.54-.3-.82-.43a16,16,0,0,0-1.45-.69,20.6,20.6,0,0,0-4.78-1.39l-.43-.07a19.43,19.43,0,0,0-3.06-.24q-.58,0-1.17,0a22.41,22.41,0,0,0-11.18,3.88,6.6,6.6,0,0,1,0,.9,7.39,7.39,0,0,1,0,.8,12.35,12.35,0,0,1-.27,1.79,13.05,13.05,0,0,1-2.75,5.56,12.17,12.17,0,0,1-1.82,1.77,9.88,9.88,0,0,1-1.18.86,8.36,8.36,0,0,0,1,1.45l.59.52.14.11c.18.13.36.26.55.38l.11.07c.23.14.48.27.72.39h0c.24.11.48.19.73.28l.2,0a6,6,0,0,0,.61.14l.21,0,.81.09h.56a6.65,6.65,0,0,0,3.86-1.23.58.58,0,0,0,.12-.1,14.74,14.74,0,0,1,2.35-1.38l.54-.25a13.51,13.51,0,0,1,5.29-1.1,13.82,13.82,0,0,1,7.06,2c.3.18.59.37.88.57A21,21,0,0,1,144,64.57a29.25,29.25,0,0,1,2.48,5.87l.06.23h0a33.47,33.47,0,0,1,1,4.7,11.33,11.33,0,0,1,.12,1.42h0a12.6,12.6,0,0,1-2,7.23,11.28,11.28,0,0,1-2.92,3.09c-.23.17-.47.33-.72.49-2.08,1.29-4.55,1.5-7,1.66a10.21,10.21,0,0,1-6.5-2.13,34,34,0,0,1-3.87-3.23,0,0,0,0,1,0,0c-1.08-1-2.1-2-3-3a7.92,7.92,0,0,1-2.28,1.79,10.51,10.51,0,0,1-1.36.59,17.76,17.76,0,0,1-6.08.92c-.33,0-.65,0-1,0a22.43,22.43,0,0,1-2.24-.14A70.19,70.19,0,0,0,115,94.25q1.27,1.73,2.7,3.31A46.23,46.23,0,0,0,152.22,113l1.51,0,1.35,0a36.49,36.49,0,0,0,21.16-6.71.57.57,0,0,0,.13-.08,36.84,36.84,0,0,0,13.18-42.86ZM109,80.92c.22,0,.43.1.64.13a6.6,6.6,0,0,0,1.14.1,2.54,2.54,0,0,0,1.67-.54,1.85,1.85,0,0,0,.66-1.51,2,2,0,0,0-.89-1.53l-.37-.26a17.3,17.3,0,0,0-2-1.12,6,6,0,0,0-1.3,1.5,3.91,3.91,0,0,1,.61,2.18A4.9,4.9,0,0,1,109,80.92Z"/><path class="cls-1" d="M125.5,1.07H126a4,4,0,0,1,4,4V9.6a0,0,0,0,1,0,0H121.5a0,0,0,0,1,0,0V5.07A4,4,0,0,1,125.5,1.07Z" transform="translate(16.6 68) rotate(-32.29)"/><path class="cls-1" d="M122.82,53.08,118.23,56a4,4,0,0,1-5.52-1.24l-.17-.27a12.17,12.17,0,0,0,1.82-1.77,13.05,13.05,0,0,0,2.75-5.56,12.35,12.35,0,0,0,.27-1.79l.4-.25Z"/><path class="cls-1" d="M138.29,1.07h.53a4,4,0,0,1,4,4V9.6a0,0,0,0,1,0,0h-8.53a0,0,0,0,1,0,0V5.07a4,4,0,0,1,4-4Z" transform="translate(18.57 74.83) rotate(-32.29)"/><path class="cls-1" d="M157.48,5.33H158a4,4,0,0,1,4,4v4.53a0,0,0,0,1,0,0h-8.53a0,0,0,0,1,0,0V9.33a4,4,0,0,1,4-4Z" transform="translate(11.58 69.69) rotate(-25.83)"/><path class="cls-3" d="M26.26,65a6.15,6.15,0,0,1,1,3.74,14.86,14.86,0,0,1-.74,4.41,29,29,0,0,1-4.59,9,26.75,26.75,0,0,1-7.24,6.77,15.24,15.24,0,0,1-8.15,2.56,7.87,7.87,0,0,1-3.47-.7A5.23,5.23,0,0,1,.89,88.91a4.47,4.47,0,0,1-.75-2.47,4.73,4.73,0,0,1,.19-1.28,3.15,3.15,0,0,1,1.16-1.67,3.32,3.32,0,0,1,1.94-.58,3.83,3.83,0,0,1,2.92,1.22,6,6,0,0,1,1.46,3.35,7,7,0,0,0,4.57-2.13A5.24,5.24,0,0,1,9.45,84a5.76,5.76,0,0,1-1.29-3.08L6.61,71.45a2.62,2.62,0,0,0-.33-1,.68.68,0,0,0-.56-.29,1.11,1.11,0,0,0-.64.27,1.16,1.16,0,0,1-.53.27c-.2,0-.31-.21-.31-.65a3.94,3.94,0,0,1,.2-1.17A7.69,7.69,0,0,1,7,65.12a6.85,6.85,0,0,1,4.42-1.53,4.42,4.42,0,0,1,3.66,1.47,9,9,0,0,1,1.53,4.53l1.16,8.52c.08.65.31,1,.69,1s1-.42,1.63-1.26a15.29,15.29,0,0,0,1.82-3.58,7.36,7.36,0,0,1-1.78-2.4,7.38,7.38,0,0,1-.31-5.08,4.59,4.59,0,0,1,1.45-2.34,3.46,3.46,0,0,1,2.23-.79A3.23,3.23,0,0,1,26.26,65Z"/><path class="cls-3" d="M49.77,65.76a7,7,0,0,1,2.49,5.57,12.2,12.2,0,0,1-.31,2.6,12.9,12.9,0,0,1-2.75,5.55,13.46,13.46,0,0,1-4.93,3.68,15.37,15.37,0,0,1-6.34,1.3c-3.58,0-6.24-.72-7.95-2.15A7.06,7.06,0,0,1,27.4,76.6a12.82,12.82,0,0,1,.31-2.67,12.47,12.47,0,0,1,2.81-5.37,14.25,14.25,0,0,1,5.07-3.64A16.06,16.06,0,0,1,42,63.63Q47.27,63.63,49.77,65.76Zm-9.61,2.76A26.36,26.36,0,0,0,38,74a23.26,23.26,0,0,0-1.24,5.66A1.72,1.72,0,0,0,37,80.8a1,1,0,0,0,.74.29c.54,0,1.1-.41,1.68-1.39A30.37,30.37,0,0,0,41.65,74a20.68,20.68,0,0,0,1.2-5.46,1.84,1.84,0,0,0-.25-1.13.88.88,0,0,0-.71-.31C41.34,67.07,40.77,67.56,40.16,68.52Z"/><path class="cls-3" d="M75.42,78.77a2.2,2.2,0,0,0-.08.46.63.63,0,0,0,.14.43.47.47,0,0,0,.37.15,1,1,0,0,0,.79-.4c.22-.27.37-.41.45-.41a.38.38,0,0,1,.33.25,1.26,1.26,0,0,1,.13.6A3.29,3.29,0,0,1,76.78,82a6.11,6.11,0,0,1-2.29,1.76,7.52,7.52,0,0,1-3.29.7,6.33,6.33,0,0,1-3.64-.93,4.14,4.14,0,0,1-1.74-2.44,9.66,9.66,0,0,1-3.08,2.34,8,8,0,0,1-3.43.8,7.54,7.54,0,0,1-4.55-1.34,4.33,4.33,0,0,1-1.84-3.73,7,7,0,0,1,.39-2.25l2.48-8.09a1.86,1.86,0,0,0,.11-.59,1.07,1.07,0,0,0-.19-.67,2.55,2.55,0,0,0-.58-.53,2.26,2.26,0,0,1-.54-.54.68.68,0,0,1,0-.62c.15-.59,1-1.11,2.44-1.57a15.67,15.67,0,0,1,4.61-.67,5.18,5.18,0,0,1,3.29.85,2.85,2.85,0,0,1,1,2.32,5.42,5.42,0,0,1-.27,1.71l-2.44,8a2.45,2.45,0,0,0-.15.81,1,1,0,0,0,.31.82,1.18,1.18,0,0,0,.81.27,1.68,1.68,0,0,0,1.2-.43,4.51,4.51,0,0,0,.93-1.43l2.36-7.78a1.92,1.92,0,0,0,.12-.59,1.13,1.13,0,0,0-.19-.67,2.81,2.81,0,0,0-.55-.53,2.26,2.26,0,0,1-.54-.54.75.75,0,0,1,0-.62c.13-.59.93-1.11,2.4-1.57a15.72,15.72,0,0,1,4.61-.67,5.25,5.25,0,0,1,3.31.85,2.78,2.78,0,0,1,1.07,2.28,6.4,6.4,0,0,1-.31,1.75Z"/><path class="cls-3" d="M101.46,64.94a4.46,4.46,0,0,1,1.3,3.26,5.69,5.69,0,0,1-.15,1.35A4.25,4.25,0,0,1,101.13,72a4,4,0,0,1-2.59.85,3.22,3.22,0,0,1-2.23-.69A6.44,6.44,0,0,1,95,70.29a4.54,4.54,0,0,0-.58-1,.8.8,0,0,0-.62-.31.89.89,0,0,0-.68.31,2.84,2.84,0,0,0-.52,1.08l-3,9.68a1.78,1.78,0,0,0-.07.59,1.19,1.19,0,0,0,.29.83,3.37,3.37,0,0,0,.79.64,2.65,2.65,0,0,1,.62.5.69.69,0,0,1,.12.5,1,1,0,0,1-.56.74,4.31,4.31,0,0,1-1.65.23H79.22a2.5,2.5,0,0,1-1.46-.33.82.82,0,0,1-.33-.87,1.57,1.57,0,0,1,.82-.81,3.66,3.66,0,0,0,1-.74A3.53,3.53,0,0,0,79.87,80l3.45-11.19a1.56,1.56,0,0,0,.08-.55,1.08,1.08,0,0,0-.18-.66,4.66,4.66,0,0,0-.56-.58,2.26,2.26,0,0,1-.54-.54.72.72,0,0,1,0-.62c.16-.59,1-1.11,2.44-1.57a15.67,15.67,0,0,1,4.61-.67,4.58,4.58,0,0,1,2.63.71,3.3,3.3,0,0,1,1.36,2A5.63,5.63,0,0,1,98,63.63,4.66,4.66,0,0,1,101.46,64.94Z"/><path class="cls-3" d="M123.3,65.49a9,9,0,0,0-3.6-1.63,23.12,23.12,0,0,0-5.55-.58c-3.26,0-5.77.62-7.54,1.88a5.87,5.87,0,0,0-2.65,5,4.23,4.23,0,0,0,.79,2.56,7.15,7.15,0,0,0,1.92,1.8,26.7,26.7,0,0,0,2.87,1.53l.3.15a6.06,6.06,0,0,1,3.88-1.4A6,6,0,0,1,118.31,77c.08.08.13.15.2.23.17.23,1.44,1.82,3.26,3.78a5.73,5.73,0,0,0,1.17-2.32,8,8,0,0,0,.15-1.16,3.94,3.94,0,0,0-.87-2.55,7.32,7.32,0,0,0-2.13-1.81,34.71,34.71,0,0,0-3.2-1.56,23.73,23.73,0,0,1-3.25-1.75,2,2,0,0,1-1-1.7,1.43,1.43,0,0,1,.6-1.32,2.63,2.63,0,0,1,1.6-.46,4.63,4.63,0,0,1,1.24.19,3.12,3.12,0,0,0-.15,1,2.91,2.91,0,0,0,1.33,2.44,5.39,5.39,0,0,0,3.27,1,4.69,4.69,0,0,0,3-.85,2.7,2.7,0,0,0,1.06-2.21A3,3,0,0,0,123.3,65.49ZM107.64,80.93c0-.17,0-.35,0-.52s.06-.45.1-.66a6,6,0,0,1,.78-2,3.91,3.91,0,0,0-.76-.88,4.89,4.89,0,0,0-3.32-1.2,4,4,0,0,0-2.67.85,3.13,3.13,0,0,0-1,2.52c0,1.63,1,2.9,3,3.83a16,16,0,0,0,5,1.24A10.44,10.44,0,0,1,107.64,80.93Z"/><path class="cls-2" d="M121.77,80.91a7.92,7.92,0,0,1-2.28,1.79,10.51,10.51,0,0,1-1.36.59L120,81.91l-2.69-3.64a4,4,0,0,0-5.43-1,17.3,17.3,0,0,0-2-1.12,6.06,6.06,0,0,1,3.88-1.4,6,6,0,0,1,4.59,2.11c.08.08.13.15.2.23C118.68,77.36,120,79,121.77,80.91Z"/><path class="cls-2" d="M111.08,84.19a22.43,22.43,0,0,1-2.24-.14,10.44,10.44,0,0,1-1.2-3.18c0-.17,0-.35,0-.52s.06-.45.1-.66a6,6,0,0,1,.78-2,3.91,3.91,0,0,1,.61,2.18,4.9,4.9,0,0,1-.12,1c.22,0,.43.1.64.13a4,4,0,0,0,.78,2.29Z"/><path class="cls-1" d="M117.31,78.27a4,4,0,0,0-5.43-1l-.17.12-.42.32a4,4,0,0,0-1.62,3.3,4,4,0,0,0,.78,2.29l.63.85L113.15,87l5-3.69L120,81.91Z"/><path class="cls-3" d="M144.62,65a4.75,4.75,0,0,1,2.21,4,5.69,5.69,0,0,1-.15,1.35A5,5,0,0,1,143.44,74a16.12,16.12,0,0,1-6.25,1.11,24.27,24.27,0,0,1-3.41-.23,3.15,3.15,0,0,0,1.08,2.82,5.3,5.3,0,0,0,3.14.82,7.42,7.42,0,0,0,1.78-.22c.57-.14,1.29-.35,2.17-.64a5.7,5.7,0,0,1,1.47-.38c.29,0,.43.16.43.5a4.81,4.81,0,0,1-1,2.85,8.23,8.23,0,0,1-3.1,2.53,10.77,10.77,0,0,1-5,1,11,11,0,0,1-7-2.17A7.54,7.54,0,0,1,125,75.75,13.72,13.72,0,0,1,125.3,73a11.33,11.33,0,0,1,4.24-7.19,13,13,0,0,1,8-2.42C140.78,63.43,143.15,64,144.62,65Zm-10.14,7.61A2.68,2.68,0,0,0,137,71.1a6.5,6.5,0,0,0,.82-3.37c0-.72-.23-1.08-.62-1.08s-.62.22-1,.67a7.61,7.61,0,0,0-1.14,2,17.62,17.62,0,0,0-.95,3.21A1.65,1.65,0,0,0,134.48,72.61Z"/><path class="cls-3" d="M161.72,56.35a2.8,2.8,0,0,1,1.06,2.32,5.2,5.2,0,0,1-.27,1.66l-6.08,19.75a3.87,3.87,0,0,0-.11.82,1.4,1.4,0,0,0,.19.79,2.36,2.36,0,0,0,.54.56,3.2,3.2,0,0,1,.39.45.5.5,0,0,1,0,.44,1.3,1.3,0,0,1-.78.74,5.19,5.19,0,0,1-1.78.23h-8.83a2.58,2.58,0,0,1-1.47-.33.74.74,0,0,1-.31-.87,1.57,1.57,0,0,1,.82-.81,3.45,3.45,0,0,0,1-.74,3.38,3.38,0,0,0,.66-1.35l5.89-19.33a1.81,1.81,0,0,0,.12-.58,1.1,1.1,0,0,0-.22-.69,2.93,2.93,0,0,0-.56-.55,2.65,2.65,0,0,1-.56-.54.65.65,0,0,1-.06-.62c.16-.59,1-1.11,2.44-1.55a16,16,0,0,1,4.61-.66A5.25,5.25,0,0,1,161.72,56.35Z"/><path class="cls-3" d="M182.24,56.75a3.62,3.62,0,0,1,2.08,3.08,2.56,2.56,0,0,1-1.22,2.27,5.79,5.79,0,0,1-3.2.79,4.17,4.17,0,0,1-2.83-.89,2.82,2.82,0,0,1-1-2.21,3.51,3.51,0,0,1,.5-1.7,3.27,3.27,0,0,0-1.94.56,3.66,3.66,0,0,0-1.2,1.92,6.16,6.16,0,0,0-.23,1.58,2.75,2.75,0,0,0,.33,1.46,1.06,1.06,0,0,0,.95.52h2.28c1.35,0,2,.41,2,1.24a2.2,2.2,0,0,1-.08.46,2,2,0,0,1-.95,1.28,4.22,4.22,0,0,1-2.15.43h-1.16l-3.83,12.54a3.38,3.38,0,0,0-.12.82,1.49,1.49,0,0,0,.19.79,2.23,2.23,0,0,0,.55.56,2.5,2.5,0,0,1,.38.45.5.5,0,0,1,0,.44,1.28,1.28,0,0,1-.77.74,5.23,5.23,0,0,1-1.78.23h-8.83a2.58,2.58,0,0,1-1.47-.33.73.73,0,0,1-.31-.87,1.51,1.51,0,0,1,.81-.81A3,3,0,0,0,160.93,80l3-9.92a3.68,3.68,0,0,0,.19-1.2,2,2,0,0,0-.33-1.22,6.1,6.1,0,0,0-1-1,8.27,8.27,0,0,1-.64-.6.92.92,0,0,1-.21-.61,1,1,0,0,1,.52-1,5,5,0,0,1,2.15-.31h1a7.21,7.21,0,0,1-.27-1.94,5.77,5.77,0,0,1,3.51-5.34c1.61-.9,4-1.36,7.18-1.36A12.17,12.17,0,0,1,182.24,56.75Z"/><path class="cls-3" d="M91.48,52.18a.57.57,0,0,0,.15.42.5.5,0,0,0,.39.16,1,1,0,0,0,.79-.41c.22-.27.37-.4.45-.4s.23.09.31.27a1.49,1.49,0,0,1,.11.62A3.27,3.27,0,0,1,92.89,55a6.44,6.44,0,0,1-2.23,1.78,6.7,6.7,0,0,1-3,.69,7.31,7.31,0,0,1-3.37-.73,4.12,4.12,0,0,1-2-1.94,6.8,6.8,0,0,1-2.4,2,6.48,6.48,0,0,1-2.87.65,6.4,6.4,0,0,1-3.31-.89A6.53,6.53,0,0,1,71.28,54a7.59,7.59,0,0,1-.91-3.74,16.69,16.69,0,0,1,1.34-6.64,12.71,12.71,0,0,1,3.73-5,8.57,8.57,0,0,1,5.46-1.91,9.5,9.5,0,0,1,2.85.38,6.82,6.82,0,0,1,2.15,1.17l1.32-4.34a2.14,2.14,0,0,0,.11-.58,1.1,1.1,0,0,0-.21-.7,3.23,3.23,0,0,0-.56-.54,3.25,3.25,0,0,1-.56-.54.65.65,0,0,1-.06-.62c.15-.6,1-1.11,2.44-1.55A16,16,0,0,1,93,28.71a5.27,5.27,0,0,1,3.31.85,2.82,2.82,0,0,1,1.06,2.33,5.25,5.25,0,0,1-.27,1.66l-5.54,18.2A2.11,2.11,0,0,0,91.48,52.18ZM83.73,40.33c-.75,0-1.48.55-2.21,1.66a14.66,14.66,0,0,0-1.74,4,15.11,15.11,0,0,0-.62,4.26c0,1.42.47,2.13,1.4,2.13a1.09,1.09,0,0,0,.85-.41,4.17,4.17,0,0,0,.66-1.33l3-9.8A2,2,0,0,0,83.73,40.33Z"/><path class="cls-3" d="M117.37,43.65A6.81,6.81,0,0,0,114.92,39q-2.49-2.13-7.76-2.13a15.9,15.9,0,0,0-6.41,1.3,14.13,14.13,0,0,0-5.07,3.64A12.68,12.68,0,0,0,93.62,45v0a12.33,12.33,0,0,0-.74,2.17c-.05.24-.1.48-.14.72v0a12.41,12.41,0,0,0-.17,1.93,8.13,8.13,0,0,0,.35,2.42,7.23,7.23,0,0,0,.65,1.48,7.31,7.31,0,0,0,1.58,1.82c1.71,1.43,4.37,2.14,8,2.14a15.52,15.52,0,0,0,6.34-1.29,13.29,13.29,0,0,0,1.93-1.05,9.88,9.88,0,0,0,1.18-.86,12.17,12.17,0,0,0,1.82-1.77,13.05,13.05,0,0,0,2.75-5.56,12.35,12.35,0,0,0,.27-1.79,7.39,7.39,0,0,0,0-.8A6.6,6.6,0,0,0,117.37,43.65Zm-10.56,3.53a31.1,31.1,0,0,1-2.19,5.73c-.58,1-1.14,1.45-1.68,1.4a1,1,0,0,1-.74-.29,1.77,1.77,0,0,1-.27-1.15,22.73,22.73,0,0,1,1.24-5.65,26.12,26.12,0,0,1,2.15-5.48c.61-1,1.18-1.45,1.72-1.45a.87.87,0,0,1,.72.31,1.81,1.81,0,0,1,.25,1.12A20.52,20.52,0,0,1,106.81,47.18Z"/><path class="cls-3" d="M138.8,37.69a2.85,2.85,0,0,1,1,2.33,5.36,5.36,0,0,1-.28,1.7L136,53.3a3.24,3.24,0,0,0-.11.81,1.44,1.44,0,0,0,.19.8,2.56,2.56,0,0,0,.54.56,4,4,0,0,1,.39.44.53.53,0,0,1,0,.45,1.3,1.3,0,0,1-.78.74,5.19,5.19,0,0,1-1.78.23h-8.83A2.58,2.58,0,0,1,124.2,57a.74.74,0,0,1-.31-.87,1.55,1.55,0,0,1,.81-.82,2.9,2.9,0,0,0,1.63-2.09L129.7,42a1.81,1.81,0,0,0,.12-.58,1.1,1.1,0,0,0-.2-.68,2.8,2.8,0,0,0-.58-.52,2.7,2.7,0,0,1-.54-.54.72.72,0,0,1,0-.62c.15-.6,1-1.12,2.44-1.57a15.68,15.68,0,0,1,4.61-.68A5.25,5.25,0,0,1,138.8,37.69Zm1.82-8.42a3.28,3.28,0,0,1,1,2.42,4.14,4.14,0,0,1-.53,2,4.08,4.08,0,0,1-1.47,1.56,3.77,3.77,0,0,1-2.11.61,3.34,3.34,0,0,1-2.46-1,3.45,3.45,0,0,1-1-2.46,4,4,0,0,1,.5-1.92A4.29,4.29,0,0,1,136,28.9a3.78,3.78,0,0,1,2.13-.62A3.45,3.45,0,0,1,140.62,29.27Z"/><path class="cls-3" d="M158,37.66a1,1,0,0,1,.41.85,3.63,3.63,0,0,1-.08.54,2.2,2.2,0,0,1-2.33,1.7h-2.24l-2.91,9.57a3.77,3.77,0,0,0-.19,1.2,1.11,1.11,0,0,0,.39,1,1.88,1.88,0,0,0,1.08.27,9.13,9.13,0,0,0,1.55-.16,3.79,3.79,0,0,1,.81-.11.51.51,0,0,1,.41.17.73.73,0,0,1,.14.45c0,.51-.36,1.14-1.15,1.88a10,10,0,0,1-3.19,1.89,12,12,0,0,1-4.45.8,6.85,6.85,0,0,1-4.23-1.2,3.92,3.92,0,0,1-1.58-3.3,5.49,5.49,0,0,1,.31-1.85l2.48-7.67a4.34,4.34,0,0,0,.19-1A2.24,2.24,0,0,0,143,41.3a5.8,5.8,0,0,0-1-1.13,5.34,5.34,0,0,1-.81-.91,1.11,1.11,0,0,1-.11-.87,1.29,1.29,0,0,1,.65-.77,3.55,3.55,0,0,1,1.59-.27h2.17l2.44-2.44a8.78,8.78,0,0,1,2.34-1.79,6.63,6.63,0,0,1,2.77-.5c1.63,0,2.44.62,2.44,1.86a3.71,3.71,0,0,1-.15,1.08l-.55,1.79h2.06A1.82,1.82,0,0,1,158,37.66Z"/></svg>