<svg id="Capa_1" data-name="Capa 1" xmlns="http://www.w3.org/2000/svg" viewBox="0 0 192 115"><defs><style>.cls-1{fill:#ce3f00;}.cls-2{fill:#a53711;}.cls-3{fill:#004c38;}</style></defs><path class="cls-1" d="M173.93,64.62H9.92l-.15-.26A65.6,65.6,0,0,1,50.84,20.87s0,0,0,0,.06,0,.09,0h0l0,0a34.77,34.77,0,0,1,10.59-2.72l.12,0h0c1.08-.1,2.18-.15,3.29-.15a35.11,35.11,0,0,1,26.8,12.36,35.17,35.17,0,0,1,26.8-12.36c1.12,0,2.21.05,3.3.15H122a34.84,34.84,0,0,1,10.71,2.76l.07,0h0A65.62,65.62,0,0,1,173.93,64.62Z"/><path class="cls-2" d="M174.23,65.69a95.67,95.67,0,0,1-39,36.25,95,95,0,0,1-42.85,10.15,94.76,94.76,0,0,1-44.21-10.85h0A95.67,95.67,0,0,1,9.92,64.62h164Z"/><path class="cls-3" d="M26,65a6.08,6.08,0,0,1,1,3.74,14.86,14.86,0,0,1-.74,4.41,28.59,28.59,0,0,1-4.59,9,26.61,26.61,0,0,1-7.24,6.77,15.21,15.21,0,0,1-8.15,2.56,7.9,7.9,0,0,1-3.47-.7,5.2,5.2,0,0,1-2.2-1.86,4.4,4.4,0,0,1-.76-2.47,4.77,4.77,0,0,1,.2-1.28,3.1,3.1,0,0,1,1.16-1.67,3.27,3.27,0,0,1,1.93-.58,3.86,3.86,0,0,1,2.93,1.22,6.06,6.06,0,0,1,1.45,3.35,7,7,0,0,0,4.57-2.13A5.27,5.27,0,0,1,9.22,84a5.76,5.76,0,0,1-1.29-3.08L6.38,71.45a2.62,2.62,0,0,0-.33-1,.67.67,0,0,0-.56-.29,1.14,1.14,0,0,0-.64.27,1.19,1.19,0,0,1-.52.27c-.21,0-.31-.21-.31-.65a3.91,3.91,0,0,1,.19-1.17A7.69,7.69,0,0,1,6.8,65.12a6.85,6.85,0,0,1,4.42-1.53,4.42,4.42,0,0,1,3.66,1.47,8.78,8.78,0,0,1,1.53,4.53l1.16,8.52c.08.65.31,1,.7,1s1-.42,1.62-1.26a15.29,15.29,0,0,0,1.82-3.58,7.51,7.51,0,0,1-1.78-2.4,7,7,0,0,1-.62-2.91,7.34,7.34,0,0,1,.31-2.17,4.66,4.66,0,0,1,1.45-2.34,3.48,3.48,0,0,1,2.23-.79A3.22,3.22,0,0,1,26,65Z"/><path class="cls-3" d="M49.54,65.76A7,7,0,0,1,52,71.33a12.88,12.88,0,0,1-.31,2.6A13,13,0,0,1,49,79.48,13.58,13.58,0,0,1,44,83.16a15.35,15.35,0,0,1-6.33,1.3q-5.39,0-8-2.15a7.06,7.06,0,0,1-2.58-5.71,13.53,13.53,0,0,1,.31-2.67,12.47,12.47,0,0,1,2.81-5.37,14.25,14.25,0,0,1,5.07-3.64,16.06,16.06,0,0,1,6.41-1.29Q47,63.63,49.54,65.76Zm-9.61,2.76A26.94,26.94,0,0,0,37.78,74a23.1,23.1,0,0,0-1.23,5.66,1.72,1.72,0,0,0,.27,1.14,1,1,0,0,0,.73.29c.54,0,1.11-.41,1.69-1.39A31.1,31.1,0,0,0,41.43,74a21.1,21.1,0,0,0,1.2-5.46,1.83,1.83,0,0,0-.26-1.13.87.87,0,0,0-.71-.31C41.12,67.07,40.54,67.56,39.93,68.52Z"/><path class="cls-3" d="M75.19,78.77a2,2,0,0,0-.07.46.63.63,0,0,0,.13.43.47.47,0,0,0,.37.15,1,1,0,0,0,.79-.4c.22-.27.37-.41.45-.41a.38.38,0,0,1,.33.25,1.26,1.26,0,0,1,.13.6A3.29,3.29,0,0,1,76.55,82a6,6,0,0,1-2.29,1.76,7.49,7.49,0,0,1-3.29.7,6.35,6.35,0,0,1-3.64-.93,4.14,4.14,0,0,1-1.74-2.44,9.66,9.66,0,0,1-3.08,2.34,7.94,7.94,0,0,1-3.43.8,7.57,7.57,0,0,1-4.55-1.34,4.36,4.36,0,0,1-1.84-3.73,7,7,0,0,1,.39-2.25l2.48-8.09a1.92,1.92,0,0,0,.12-.59,1,1,0,0,0-.2-.67A2.55,2.55,0,0,0,54.9,67a2.26,2.26,0,0,1-.54-.54.72.72,0,0,1,0-.62c.16-.59,1-1.11,2.44-1.57a15.67,15.67,0,0,1,4.61-.67,5.17,5.17,0,0,1,3.29.85,2.83,2.83,0,0,1,1,2.32,5.42,5.42,0,0,1-.28,1.71l-2.43,8a2.24,2.24,0,0,0-.16.81,1,1,0,0,0,.31.82,1.2,1.2,0,0,0,.81.27,1.68,1.68,0,0,0,1.2-.43,4.51,4.51,0,0,0,.93-1.43l2.37-7.78a2.2,2.2,0,0,0,.11-.59,1,1,0,0,0-.19-.67,3,3,0,0,0-.54-.53,2.56,2.56,0,0,1-.55-.54.72.72,0,0,1,0-.62c.12-.59.92-1.11,2.4-1.57a15.61,15.61,0,0,1,4.6-.67,5.3,5.3,0,0,1,3.32.85,2.8,2.8,0,0,1,1.06,2.28,6,6,0,0,1-.31,1.75Z"/><path class="cls-3" d="M101.24,64.94a4.49,4.49,0,0,1,1.29,3.26,5.69,5.69,0,0,1-.15,1.35A4.29,4.29,0,0,1,100.91,72a4.08,4.08,0,0,1-2.6.85,3.17,3.17,0,0,1-2.22-.69,6.45,6.45,0,0,1-1.34-1.86,4.54,4.54,0,0,0-.58-1,.8.8,0,0,0-.62-.31.89.89,0,0,0-.68.31,2.84,2.84,0,0,0-.52,1.08l-3,9.68a1.52,1.52,0,0,0-.08.59,1.23,1.23,0,0,0,.29.83,3.59,3.59,0,0,0,.79.64,2.65,2.65,0,0,1,.62.5.64.64,0,0,1,.12.5,1,1,0,0,1-.56.74,4.27,4.27,0,0,1-1.65.23H79a2.46,2.46,0,0,1-1.45-.33.79.79,0,0,1-.33-.87A1.51,1.51,0,0,1,78,82.1a3.51,3.51,0,0,0,1-.74A3.38,3.38,0,0,0,79.65,80l3.44-11.19a1.56,1.56,0,0,0,.08-.55,1.15,1.15,0,0,0-.17-.66,5.87,5.87,0,0,0-.57-.58,2.72,2.72,0,0,1-.54-.54.75.75,0,0,1,0-.62c.16-.59,1-1.11,2.44-1.57a15.67,15.67,0,0,1,4.61-.67,4.58,4.58,0,0,1,2.63.71,3.3,3.3,0,0,1,1.36,2,5.65,5.65,0,0,1,4.88-2.75A4.68,4.68,0,0,1,101.24,64.94Z"/><path class="cls-3" d="M119.48,63.86a9.14,9.14,0,0,1,3.6,1.62,3.05,3.05,0,0,1,1.26,2.37,2.68,2.68,0,0,1-1.07,2.2,4.62,4.62,0,0,1-3,.86,5.46,5.46,0,0,1-3.27-1,2.92,2.92,0,0,1-1.34-2.44,2.86,2.86,0,0,1,.16-1,4.68,4.68,0,0,0-1.24-.19,2.65,2.65,0,0,0-1.61.46,1.43,1.43,0,0,0-.6,1.32,2,2,0,0,0,1,1.7,22.28,22.28,0,0,0,3.25,1.74c1.29.57,2.35,1.1,3.19,1.57a7.45,7.45,0,0,1,2.13,1.8,4,4,0,0,1,.87,2.56,8.13,8.13,0,0,1-.15,1.16,6.29,6.29,0,0,1-3.45,4.11,15.83,15.83,0,0,1-7.43,1.51,20,20,0,0,1-8.23-1.4c-2-.93-3-2.2-3-3.83a3.1,3.1,0,0,1,1-2.52,4,4,0,0,1,2.67-.85,4.87,4.87,0,0,1,3.31,1.2,3.9,3.9,0,0,1,1.37,3.06,5.6,5.6,0,0,1-.11,1,7.56,7.56,0,0,0,1.78.23,2.53,2.53,0,0,0,1.66-.54,1.86,1.86,0,0,0,.66-1.51,2,2,0,0,0-.89-1.53,16.59,16.59,0,0,0-2.71-1.53,28.61,28.61,0,0,1-2.87-1.53,7.26,7.26,0,0,1-1.91-1.8,4.24,4.24,0,0,1-.8-2.56,5.88,5.88,0,0,1,2.66-5c1.76-1.26,4.28-1.88,7.53-1.88A23.27,23.27,0,0,1,119.48,63.86Z"/><path class="cls-3" d="M144.39,65a4.72,4.72,0,0,1,2.21,4,5.69,5.69,0,0,1-.15,1.35A5,5,0,0,1,143.21,74,16.08,16.08,0,0,1,137,75.13a24.38,24.38,0,0,1-3.41-.23,3.18,3.18,0,0,0,1.09,2.82,5.25,5.25,0,0,0,3.13.82,7.35,7.35,0,0,0,1.78-.22c.57-.14,1.29-.35,2.17-.64a5.9,5.9,0,0,1,1.47-.38c.29,0,.43.16.43.5a4.75,4.75,0,0,1-1,2.85,8.19,8.19,0,0,1-3.09,2.53,10.81,10.81,0,0,1-5,1,11,11,0,0,1-7-2.17,7.57,7.57,0,0,1-2.75-6.31,13.72,13.72,0,0,1,.31-2.71,11.37,11.37,0,0,1,4.24-7.19,13,13,0,0,1,8-2.42C140.55,63.43,142.92,64,144.39,65Zm-10.14,7.61a2.7,2.7,0,0,0,2.48-1.51,6.5,6.5,0,0,0,.81-3.37c0-.72-.23-1.08-.62-1.08s-.62.22-1,.67a8.2,8.2,0,0,0-1.14,2,18.45,18.45,0,0,0-1,3.21A1.69,1.69,0,0,0,134.25,72.61Z"/><path class="cls-3" d="M161.49,56.35a2.8,2.8,0,0,1,1.07,2.32,5.2,5.2,0,0,1-.27,1.66l-6.08,19.75a3.38,3.38,0,0,0-.12.82,1.4,1.4,0,0,0,.19.79,2.23,2.23,0,0,0,.55.56,2.5,2.5,0,0,1,.38.45.5.5,0,0,1,0,.44,1.31,1.31,0,0,1-.77.74,5.23,5.23,0,0,1-1.78.23h-8.83a2.55,2.55,0,0,1-1.47-.33.73.73,0,0,1-.31-.87,1.51,1.51,0,0,1,.81-.81,3.51,3.51,0,0,0,1-.74,3.67,3.67,0,0,0,.66-1.35l5.88-19.33a1.81,1.81,0,0,0,.12-.58,1,1,0,0,0-.22-.69,2.66,2.66,0,0,0-.56-.55,2.92,2.92,0,0,1-.56-.54.71.71,0,0,1-.06-.62c.16-.59,1-1.11,2.44-1.55a16,16,0,0,1,4.61-.66A5.25,5.25,0,0,1,161.49,56.35Z"/><path class="cls-3" d="M182,56.75a3.62,3.62,0,0,1,2.07,3.08,2.56,2.56,0,0,1-1.22,2.27,5.77,5.77,0,0,1-3.2.79,4.13,4.13,0,0,1-2.82-.89,2.83,2.83,0,0,1-1-2.21,3.51,3.51,0,0,1,.5-1.7,3.22,3.22,0,0,0-1.93.56,3.54,3.54,0,0,0-1.2,1.92,5.78,5.78,0,0,0-.24,1.58,2.75,2.75,0,0,0,.33,1.46,1.06,1.06,0,0,0,.95.52h2.29c1.34,0,2,.41,2,1.24a2.2,2.2,0,0,1-.08.46,2,2,0,0,1-.95,1.28,4.18,4.18,0,0,1-2.14.43h-1.17l-3.83,12.54a3.38,3.38,0,0,0-.12.82,1.4,1.4,0,0,0,.2.79,2.36,2.36,0,0,0,.54.56,3.2,3.2,0,0,1,.39.45.54.54,0,0,1,0,.44,1.3,1.3,0,0,1-.78.74,5.23,5.23,0,0,1-1.78.23H160a2.58,2.58,0,0,1-1.47-.33.74.74,0,0,1-.31-.87,1.51,1.51,0,0,1,.81-.81,3.51,3.51,0,0,0,1-.74A3.38,3.38,0,0,0,160.7,80l3-9.92a3.68,3.68,0,0,0,.19-1.2,2,2,0,0,0-.33-1.22,6.41,6.41,0,0,0-1-1,5.69,5.69,0,0,1-.64-.6.88.88,0,0,1-.22-.61,1,1,0,0,1,.53-1,4.94,4.94,0,0,1,2.15-.31h1a7.21,7.21,0,0,1-.27-1.94,5.77,5.77,0,0,1,3.51-5.34c1.61-.9,4-1.36,7.18-1.36A12.21,12.21,0,0,1,182,56.75Z"/><path class="cls-3" d="M91.28,52.22a.59.59,0,0,0,.15.43.56.56,0,0,0,.39.15,1,1,0,0,0,.79-.4c.22-.27.37-.41.45-.41s.23.09.31.27a1.52,1.52,0,0,1,.12.62,3.3,3.3,0,0,1-.8,2.13,6.2,6.2,0,0,1-2.22,1.78,6.61,6.61,0,0,1-3,.7,7.25,7.25,0,0,1-3.37-.74,4.08,4.08,0,0,1-2-1.93,6.87,6.87,0,0,1-2.4,2,6.51,6.51,0,0,1-8.62-2.77,7.63,7.63,0,0,1-.91-3.73,16.74,16.74,0,0,1,1.34-6.65,12.77,12.77,0,0,1,3.74-5,8.5,8.5,0,0,1,5.46-1.92,9.06,9.06,0,0,1,2.84.39,6.89,6.89,0,0,1,2.15,1.16L87,33.94a1.81,1.81,0,0,0,.12-.58,1.1,1.1,0,0,0-.22-.69,3.67,3.67,0,0,0-.56-.55,2.92,2.92,0,0,1-.56-.54.65.65,0,0,1-.06-.62c.16-.59,1-1.11,2.44-1.55a16,16,0,0,1,4.61-.65,5.25,5.25,0,0,1,3.31.85,2.82,2.82,0,0,1,1.07,2.32,5.32,5.32,0,0,1-.28,1.67L91.36,51.8A1.66,1.66,0,0,0,91.28,52.22ZM83.53,40.37c-.75,0-1.48.56-2.2,1.67a14.24,14.24,0,0,0-1.75,4A15,15,0,0,0,79,50.33c0,1.42.47,2.13,1.4,2.13a1.09,1.09,0,0,0,.85-.41,4.24,4.24,0,0,0,.66-1.34l3-9.8A2,2,0,0,0,83.53,40.37Z"/><path class="cls-3" d="M114.73,39a7,7,0,0,1,2.5,5.57,12.88,12.88,0,0,1-.31,2.6,13.05,13.05,0,0,1-2.75,5.56,13.67,13.67,0,0,1-4.94,3.67,15.35,15.35,0,0,1-6.33,1.3c-3.59,0-6.24-.71-8-2.15a7,7,0,0,1-2.58-5.71,13.53,13.53,0,0,1,.31-2.67,12.47,12.47,0,0,1,2.81-5.37,14.25,14.25,0,0,1,5.07-3.64A16.06,16.06,0,0,1,107,36.89Q112.23,36.89,114.73,39Zm-9.61,2.77A26.45,26.45,0,0,0,103,47.27a23,23,0,0,0-1.23,5.65,1.72,1.72,0,0,0,.27,1.14.92.92,0,0,0,.73.29c.54,0,1.11-.41,1.69-1.39a30.55,30.55,0,0,0,2.18-5.73,20.81,20.81,0,0,0,1.21-5.46,1.83,1.83,0,0,0-.26-1.13.87.87,0,0,0-.71-.31C106.3,40.33,105.73,40.82,105.12,41.79Z"/><path class="cls-3" d="M138.6,37.74a2.83,2.83,0,0,1,1.05,2.32,5.42,5.42,0,0,1-.27,1.71l-3.57,11.58a3.79,3.79,0,0,0-.11.81,1.4,1.4,0,0,0,.19.79,2.36,2.36,0,0,0,.54.56,3.89,3.89,0,0,1,.39.45.52.52,0,0,1,0,.45,1.29,1.29,0,0,1-.78.73,5,5,0,0,1-1.78.23h-8.83A2.58,2.58,0,0,1,124,57a.73.73,0,0,1-.31-.87,1.57,1.57,0,0,1,.82-.81,3.45,3.45,0,0,0,1-.74,3.38,3.38,0,0,0,.66-1.35l3.37-11.19a1.92,1.92,0,0,0,.12-.58,1.08,1.08,0,0,0-.2-.68,2.54,2.54,0,0,0-.58-.52,2.47,2.47,0,0,1-.54-.55.72.72,0,0,1,0-.62c.16-.59,1-1.11,2.44-1.56a15.36,15.36,0,0,1,4.61-.68A5.17,5.17,0,0,1,138.6,37.74Zm1.82-8.42a3.25,3.25,0,0,1,1,2.42,4.17,4.17,0,0,1-.52,2,4.13,4.13,0,0,1-1.48,1.57,3.85,3.85,0,0,1-2.11.6,3.34,3.34,0,0,1-2.46-1,3.47,3.47,0,0,1-1-2.46,4.1,4.1,0,0,1,.5-1.91A4.31,4.31,0,0,1,135.77,29a3.78,3.78,0,0,1,2.13-.62A3.45,3.45,0,0,1,140.42,29.32Z"/><path class="cls-3" d="M157.75,37.7a1,1,0,0,1,.41.85,3.3,3.3,0,0,1-.08.54,2.2,2.2,0,0,1-2.32,1.71h-2.25l-2.9,9.56a3.78,3.78,0,0,0-.2,1.2,1.09,1.09,0,0,0,.39,1,1.88,1.88,0,0,0,1.08.27,10,10,0,0,0,1.55-.15,3.31,3.31,0,0,1,.82-.12.46.46,0,0,1,.4.18.68.68,0,0,1,.14.44c0,.52-.36,1.14-1.14,1.88a10,10,0,0,1-3.2,1.9,12,12,0,0,1-4.45.79,6.82,6.82,0,0,1-4.22-1.2,3.9,3.9,0,0,1-1.59-3.29,5.5,5.5,0,0,1,.31-1.86L143,43.7a3.84,3.84,0,0,0,.19-1,2.25,2.25,0,0,0-.37-1.32,6,6,0,0,0-1-1.12,5.42,5.42,0,0,1-.82-.91,1.12,1.12,0,0,1-.11-.87,1.27,1.27,0,0,1,.66-.78,3.47,3.47,0,0,1,1.58-.27h2.17L147.7,35a8.8,8.8,0,0,1,2.35-1.78,6.4,6.4,0,0,1,2.76-.5c1.63,0,2.44.62,2.44,1.86a3.81,3.81,0,0,1-.15,1.08l-.54,1.78h2.05A1.82,1.82,0,0,1,157.75,37.7Z"/></svg>