<svg id="Capa_1" data-name="Capa 1" xmlns="http://www.w3.org/2000/svg" viewBox="0 0 192 115"><defs><style>.cls-1{fill:#fff;}.cls-2{fill:#004c38;}</style></defs><path class="cls-1" d="M29,70.11A5.28,5.28,0,0,0,28,67.75a3.24,3.24,0,0,0-2.73-1.38,3.46,3.46,0,0,0-2.22.8,4.6,4.6,0,0,0-1.45,2.33,7.11,7.11,0,0,0-.31,2.17A6.94,6.94,0,0,0,21.69,74a.11.11,0,0,0,0,0,5.83,5.83,0,0,0,.23.58A7,7,0,0,0,23.72,77a16,16,0,0,1-1.82,3.59c-.62.84-1.17,1.26-1.63,1.26s-.62-.33-.7-1l-.34-2.52-.82-6a8.78,8.78,0,0,0-1.53-4.53A3.44,3.44,0,0,0,16,67a5.16,5.16,0,0,0-2.73-.66,6.85,6.85,0,0,0-4.41,1.52,7.67,7.67,0,0,0-2.44,3.29.2.2,0,0,1,0,0l.33,2a1.7,1.7,0,0,1,.14-.1,1.09,1.09,0,0,1,.64-.27.67.67,0,0,1,.56.29,2.56,2.56,0,0,1,.33,1l1.55,9.47c0,.25.09.5.15.73a6.07,6.07,0,0,0,2.07.7,7.84,7.84,0,0,1-1.37,1.07,3.06,3.06,0,0,0,.45.58,5.12,5.12,0,0,0,2.92,1.35,7,7,0,0,1-4.57,2.13,6.11,6.11,0,0,0-1.23-3.09,6.48,6.48,0,0,1-.77.09,8.58,8.58,0,0,0-.19-1,3.87,3.87,0,0,0-2.18-.61,3.23,3.23,0,0,0-1.94.58,3.11,3.11,0,0,0-1.16,1.67,4.75,4.75,0,0,0-.2,1.26A4.41,4.41,0,0,0,2,90a4.53,4.53,0,0,0,.68,1.66,5.18,5.18,0,0,0,2.21,1.86,7.86,7.86,0,0,0,3.46.69,15.2,15.2,0,0,0,8.15-2.55,26.67,26.67,0,0,0,7.25-6.78,29.28,29.28,0,0,0,3.69-6.46q.51-1.24.9-2.52a15.21,15.21,0,0,0,.73-4.41A8.61,8.61,0,0,0,29,70.11Z"/><path class="cls-1" d="M54,73.6a6.83,6.83,0,0,0-2.35-5,1.42,1.42,0,0,0-.13-.12q-2.49-2.13-7.76-2.13a16,16,0,0,0-6.41,1.3,14.38,14.38,0,0,0-5.08,3.64,12.41,12.41,0,0,0-2.8,5.36,13,13,0,0,0-.31,2.68,8.25,8.25,0,0,0,.38,2.54,6.93,6.93,0,0,0,2.19,3.17q2.58,2.14,8,2.15A15.52,15.52,0,0,0,46,85.91,13.49,13.49,0,0,0,51,82.23a12.21,12.21,0,0,0,1.75-2.73,12.66,12.66,0,0,0,1-2.83A12.19,12.19,0,0,0,54,74.08,3.77,3.77,0,0,0,54,73.6Zm-9.64-3.47a1.9,1.9,0,0,1,.25,1.12,20.52,20.52,0,0,1-1.2,5.46,31.1,31.1,0,0,1-2.19,5.73c-.58,1-1.14,1.45-1.68,1.4a1,1,0,0,1-.74-.29,1.76,1.76,0,0,1-.27-1.14,11.71,11.71,0,0,1,.37-2.49c.2-.88.49-1.94.87-3.17a25.79,25.79,0,0,1,2.15-5.48,3.22,3.22,0,0,1,.31-.45c.49-.67,1-1,1.41-1A.87.87,0,0,1,44.38,70.13Z"/><path class="cls-1" d="M80.33,71.25a5.93,5.93,0,0,0,.31-1.75,2.75,2.75,0,0,0-1.06-2.27,3.44,3.44,0,0,0-1-.52,7.23,7.23,0,0,0-2.36-.34,15.68,15.68,0,0,0-4.61.68c-1.47.45-2.27,1-2.4,1.57a.69.69,0,0,0,0,.62,2.26,2.26,0,0,0,.54.53,3.9,3.9,0,0,1,.54.53,1.08,1.08,0,0,1,.19.68,1.76,1.76,0,0,1-.11.58L68.1,79.35a4.33,4.33,0,0,1-.93,1.42,1.69,1.69,0,0,1-1.2.44.86.86,0,0,1-.28,0,.58.58,0,0,1-.32-.1.62.62,0,0,1-.22-.15,1,1,0,0,1-.31-.8,2.2,2.2,0,0,1,.16-.81l.63-2.1s0,0,0,0l1.8-5.94a5.36,5.36,0,0,0,.27-1.7,2.82,2.82,0,0,0-1-2.32,2.76,2.76,0,0,0-1-.52,6.79,6.79,0,0,0-2.33-.34,15.68,15.68,0,0,0-4.61.68c-1.47.45-2.28,1-2.44,1.57a.76.76,0,0,0,0,.62,2.71,2.71,0,0,0,.54.53,2.82,2.82,0,0,1,.58.53,1.08,1.08,0,0,1,.2.68,1.81,1.81,0,0,1-.12.58l-2.48,8.1a7.17,7.17,0,0,0-.38,2.24,4.5,4.5,0,0,0,.08.9,4.17,4.17,0,0,0,1.76,2.84A7.59,7.59,0,0,0,61.09,87a7.8,7.8,0,0,0,3.42-.81,9.52,9.52,0,0,0,3.08-2.33,4.07,4.07,0,0,0,1.75,2.43,6.23,6.23,0,0,0,3.64.94,7.39,7.39,0,0,0,3.29-.71,5.88,5.88,0,0,0,2.28-1.75,4.35,4.35,0,0,0,.53-.89,3,3,0,0,0,.25-1.26,1.27,1.27,0,0,0-.14-.6.38.38,0,0,0-.33-.25c-.08,0-.22.13-.44.4a1,1,0,0,1-.8.41.49.49,0,0,1-.31-.11s0,0-.06,0a.65.65,0,0,1-.13-.43,2.1,2.1,0,0,1,.08-.46Z"/><path class="cls-1" d="M103.89,68.52a4.56,4.56,0,0,0-.65-.83,4.05,4.05,0,0,0-.77-.61,4.88,4.88,0,0,0-2.7-.71,5.67,5.67,0,0,0-4.88,2.75,3.29,3.29,0,0,0-1.35-2,4.56,4.56,0,0,0-2.64-.72,15.61,15.61,0,0,0-4.6.68c-1.48.45-2.29,1-2.44,1.57a.72.72,0,0,0,0,.62,2.55,2.55,0,0,0,.55.53,5.53,5.53,0,0,1,.56.59,1.15,1.15,0,0,1,.17.66,1.61,1.61,0,0,1-.07.54L81.65,82.75a4.53,4.53,0,0,1-.46,1.11,2.73,2.73,0,0,1-.2.25,3.71,3.71,0,0,1-1,.74,1.51,1.51,0,0,0-.81.81.77.77,0,0,0,.33.86,2.4,2.4,0,0,0,1.45.34H90.9a4.44,4.44,0,0,0,1.65-.23,1,1,0,0,0,.56-.74.64.64,0,0,0-.11-.5,2.86,2.86,0,0,0-.62-.51,4,4,0,0,1-.8-.63,1.26,1.26,0,0,1-.29-.84,1.71,1.71,0,0,1,.08-.58l3-9.68a2.84,2.84,0,0,1,.52-1.08.91.91,0,0,1,.68-.32.81.81,0,0,1,.62.32,4.18,4.18,0,0,1,.58,1,6.24,6.24,0,0,0,1.34,1.87,3.13,3.13,0,0,0,2.22.7,4.06,4.06,0,0,0,2.6-.85,4.29,4.29,0,0,0,1.47-2.44h0a5.74,5.74,0,0,0,.16-1.35A4.54,4.54,0,0,0,103.89,68.52Z"/><path class="cls-1" d="M126.12,69.55a3.59,3.59,0,0,0-1-1.32,5.49,5.49,0,0,0-.75-.52,10,10,0,0,0-2.85-1.1,22.67,22.67,0,0,0-5.56-.59c-.45,0-.89,0-1.3.06a3.59,3.59,0,0,0-.47,0,11.32,11.32,0,0,0-5.76,1.79A5.9,5.9,0,0,0,105.74,73a5.29,5.29,0,0,0,.08.9,3.89,3.89,0,0,0,.71,1.64,6.44,6.44,0,0,0,.87,1l.15.12.06,0a5.18,5.18,0,0,0,.84.64,24.78,24.78,0,0,0,2.86,1.53c.57.28,1.07.53,1.5.77a9.71,9.71,0,0,1,1.21.76,2,2,0,0,1,.89,1.53,1.86,1.86,0,0,1-.65,1.51,2.56,2.56,0,0,1-1.67.55,6.7,6.7,0,0,1-1.78-.25,4.75,4.75,0,0,0,.12-1,4.18,4.18,0,0,0-.35-1.71,6.63,6.63,0,0,1-1.77-.25,4.75,4.75,0,0,0,.12-1,4.84,4.84,0,0,0,0-.53,5,5,0,0,0-2.66-.72,4,4,0,0,0-2.67.85,3.11,3.11,0,0,0-1,2.52,2.53,2.53,0,0,0,0,.27c.11,1.49,1.11,2.68,3,3.56A20.09,20.09,0,0,0,113.83,87a15.91,15.91,0,0,0,7.44-1.5,6.27,6.27,0,0,0,3.44-4.1,8.87,8.87,0,0,0,.16-1.16,4,4,0,0,0-.87-2.57,7.56,7.56,0,0,0-1.18-1.15,7.89,7.89,0,0,0-.95-.64c-.84-.48-1.91-1-3.2-1.57a24.44,24.44,0,0,1-3.25-1.74,2,2,0,0,1-1-1.7,1.46,1.46,0,0,1,.1-.64,1.28,1.28,0,0,1,.5-.68,2.51,2.51,0,0,1,1.39-.46h.22a5.13,5.13,0,0,1,1.24.19,2.89,2.89,0,0,0-.15.82.86.86,0,0,0,0,.16,2.71,2.71,0,0,0,.72,1.87,4.32,4.32,0,0,0,.62.57,4.79,4.79,0,0,0,1.7.77,6,6,0,0,0,1.57.19A4.8,4.8,0,0,0,125,73a1.88,1.88,0,0,0,.23-.16,2.7,2.7,0,0,0,1.07-2.21A2.49,2.49,0,0,0,126.12,69.55Z"/><path class="cls-1" d="M146.51,67.83l-.11-.08q-2.21-1.57-7.13-1.58a13.07,13.07,0,0,0-8,2.43,11.35,11.35,0,0,0-4.24,7.17,14.8,14.8,0,0,0-.31,2.72,9.28,9.28,0,0,0,.48,3.09,6.81,6.81,0,0,0,2.27,3.23A11.1,11.1,0,0,0,136.56,87a10.66,10.66,0,0,0,5-1.06,8.23,8.23,0,0,0,3-2.35l.14-.18a5.62,5.62,0,0,0,.92-2,3.76,3.76,0,0,0,.08-.87q0-.51-.42-.51a5.7,5.7,0,0,0-1.47.38c-.57.2-1.07.35-1.51.47l-.66.18a7.47,7.47,0,0,1-1.78.2,5.28,5.28,0,0,1-3.14-.81,3,3,0,0,1-1.08-2.52c0-.1,0-.2,0-.3a22.91,22.91,0,0,0,3.41.24c.52,0,1,0,1.52-.06a15.67,15.67,0,0,0,3.11-.5,12,12,0,0,0,1.63-.55,5.05,5.05,0,0,0,3.23-3.66,5.72,5.72,0,0,0,.15-1.36A4.68,4.68,0,0,0,146.51,67.83Zm-8.66,7a2.63,2.63,0,0,1-1.6.5,1.56,1.56,0,0,1-.42,0c0-.16.07-.32.1-.47a16.85,16.85,0,0,1,.84-2.74,7.71,7.71,0,0,1,1.15-2c.38-.45.72-.68,1-.68s.6.36.62,1.09a6.43,6.43,0,0,1-.81,3.37,3.2,3.2,0,0,1-.87,1Z"/><path class="cls-1" d="M137.85,74.86a2.63,2.63,0,0,1-1.6.5,1.56,1.56,0,0,1-.42,0c0-.16.07-.32.1-.47.34,0,.68,0,1,0Z"/><path class="cls-1" d="M163.5,59.09a3.31,3.31,0,0,0-.95-.51,7.25,7.25,0,0,0-2.37-.34,15.94,15.94,0,0,0-4.6.66c-1.48.44-2.29,1-2.44,1.55a.68.68,0,0,0,.05.62,4.44,4.44,0,0,0,.57.54,2.9,2.9,0,0,1,.56.54,1.12,1.12,0,0,1,.21.7,1.76,1.76,0,0,1-.12.57l-5.88,19.33a4.53,4.53,0,0,1-.46,1.11,2.73,2.73,0,0,1-.2.25,3.71,3.71,0,0,1-1,.74,1.51,1.51,0,0,0-.81.81.71.71,0,0,0,.31.86,2.49,2.49,0,0,0,1.47.34h8.83a5.5,5.5,0,0,0,1.78-.23,1.28,1.28,0,0,0,.77-.74.5.5,0,0,0,0-.44,2.72,2.72,0,0,0-.39-.45,2.56,2.56,0,0,1-.54-.56,1.4,1.4,0,0,1-.2-.79,3.31,3.31,0,0,1,.12-.82l0-.14s0,0,0,0h0l4.85-15.76.92-3,.25-.81a5.2,5.2,0,0,0,.27-1.66A2.83,2.83,0,0,0,163.5,59.09Z"/><path class="cls-1" d="M184.09,59.54l-.07,0a12.18,12.18,0,0,0-6.22-1.26c-.58,0-1.14,0-1.67,0s-1.25.09-1.81.17a10.49,10.49,0,0,0-3.7,1.14,6.57,6.57,0,0,0-3.16,3.32,6.48,6.48,0,0,0-.34,2,7.21,7.21,0,0,0,.27,1.94h-1a4.94,4.94,0,0,0-2.15.31.91.91,0,0,0-.48.62,2.3,2.3,0,0,1,.13.83v.13a.21.21,0,0,0,0,.06,3.84,3.84,0,0,0,.64.59,6.11,6.11,0,0,1,1,1,2,2,0,0,1,.33,1.22,3.78,3.78,0,0,1-.2,1.2l-3,9.91a4.53,4.53,0,0,1-.46,1.11,2.73,2.73,0,0,1-.2.25,3.71,3.71,0,0,1-1,.74,1.54,1.54,0,0,0-.81.81.72.72,0,0,0,.31.86,2.49,2.49,0,0,0,1.47.34h8.83a5.46,5.46,0,0,0,1.78-.23,1.33,1.33,0,0,0,.78-.74.5.5,0,0,0,0-.44A2.72,2.72,0,0,0,173,85a2.56,2.56,0,0,1-.54-.56,1.4,1.4,0,0,1-.19-.79,3.79,3.79,0,0,1,.11-.82l3.84-12.54h1.16a4.36,4.36,0,0,0,2.15-.43,2.05,2.05,0,0,0,.95-1.28,2.21,2.21,0,0,0,.07-.46c0-.83-.67-1.24-2-1.24h-2.28a1.05,1.05,0,0,1-.95-.53A2.71,2.71,0,0,1,175,64.9a5.33,5.33,0,0,1,.1-1c0-.19.08-.38.13-.57a3.55,3.55,0,0,1,1.2-1.91l.07,0a3.1,3.1,0,0,1,1.87-.52,3.46,3.46,0,0,0-.5,1.5,1.27,1.27,0,0,0,0,.2,2.85,2.85,0,0,0,1,2.21,4.14,4.14,0,0,0,2.83.89,5.75,5.75,0,0,0,3.19-.8,2.52,2.52,0,0,0,1.22-2.26A3.61,3.61,0,0,0,184.09,59.54Z"/><path class="cls-1" d="M98.07,32.37a3.25,3.25,0,0,0-.94-.51,7,7,0,0,0-2.37-.36,16.06,16.06,0,0,0-4.61.67c-1.47.44-2.28,1-2.44,1.54a.73.73,0,0,0,.06.63,3.67,3.67,0,0,0,.56.54,3.24,3.24,0,0,1,.56.54,1.09,1.09,0,0,1,.22.7,1.92,1.92,0,0,1-.12.58L87.68,41a6.9,6.9,0,0,0-2.15-1.16,9.17,9.17,0,0,0-2.85-.39,8.5,8.5,0,0,0-5.46,1.92,12.77,12.77,0,0,0-3.74,5,16.72,16.72,0,0,0-1.33,6.64,8,8,0,0,0,.4,2.59,7,7,0,0,0,.51,1.15,6.53,6.53,0,0,0,8.61,2.77,6.7,6.7,0,0,0,2.4-2,4.07,4.07,0,0,0,2,1.92,7.16,7.16,0,0,0,3.37.75,6.61,6.61,0,0,0,3-.7,6.33,6.33,0,0,0,2.23-1.78,4.26,4.26,0,0,0,.67-1.25,2.69,2.69,0,0,0,.12-.78v-.1a1.52,1.52,0,0,0-.12-.62c-.07-.18-.18-.27-.31-.27s-.18.1-.35.3l0,.05,0,.06a1,1,0,0,1-.8.4.53.53,0,0,1-.54-.58,2.18,2.18,0,0,1,.08-.42l.22-.71,1-3.16v0l.88-2.9s0,0,0,0L98,39.37l.92-3a5.35,5.35,0,0,0,.27-1.67A2.79,2.79,0,0,0,98.07,32.37ZM82.33,55.21a1.23,1.23,0,0,1-.65-.16c-.5-.28-.74-.93-.74-2A7.92,7.92,0,0,1,81,52a15.82,15.82,0,0,1,.58-3.17,14.53,14.53,0,0,1,1.74-4,6.48,6.48,0,0,1,.49-.67,2.34,2.34,0,0,1,1.72-1,2,2,0,0,1,1.35.54l-3,9.79a3.83,3.83,0,0,1-.66,1.35,1.07,1.07,0,0,1-.74.39Z"/><path class="cls-1" d="M116.83,41.9s-.09-.08-.13-.13q-2.49-2.12-7.76-2.12a16,16,0,0,0-6.41,1.29,14.29,14.29,0,0,0-5.08,3.64,12.55,12.55,0,0,0-2,3.17s0,0,0,0A12.16,12.16,0,0,0,94.65,50c-.05.25-.1.47-.14.72v0a12.31,12.31,0,0,0-.17,1.93,8.25,8.25,0,0,0,.34,2.43.56.56,0,0,1,0,.12,6.91,6.91,0,0,0,.62,1.35,7.06,7.06,0,0,0,1.57,1.81c1.72,1.44,4.37,2.15,8,2.15a15.2,15.2,0,0,0,6.33-1.31,13.36,13.36,0,0,0,4.94-3.67A13,13,0,0,0,118.89,50a12.2,12.2,0,0,0,.31-2.6A7,7,0,0,0,116.83,41.9Zm-7.29,1.5a1.9,1.9,0,0,1,.25,1.12,20.65,20.65,0,0,1-1.2,5.47,30.61,30.61,0,0,1-2.19,5.72c-.58,1-1.14,1.45-1.68,1.4a.94.94,0,0,1-.74-.29,1.73,1.73,0,0,1-.27-1.15,11.49,11.49,0,0,1,.37-2.46c.2-.89.49-2,.87-3.19a25.19,25.19,0,0,1,2.15-5.47,5.09,5.09,0,0,1,.31-.45c.48-.68,1-1,1.41-1A.9.9,0,0,1,109.54,43.4Z"/><path class="cls-1" d="M141.35,44.52a5.31,5.31,0,0,0,.27-1.7,2.83,2.83,0,0,0-1.05-2.32,2.76,2.76,0,0,0-1-.52,6.81,6.81,0,0,0-2.33-.33,15.61,15.61,0,0,0-4.6.67c-1.48.45-2.29,1-2.45,1.57a.72.72,0,0,0,0,.61,2.57,2.57,0,0,0,.55.56,2.77,2.77,0,0,1,.58.52,1,1,0,0,1,.19.67,1.92,1.92,0,0,1-.12.59L128.1,56a4.21,4.21,0,0,1-.46,1.11l-.19.25a3.51,3.51,0,0,1-1,.74,1.53,1.53,0,0,0-.81.8.73.73,0,0,0,.31.88,2.55,2.55,0,0,0,1.47.33h8.83a5,5,0,0,0,1.78-.23,1.28,1.28,0,0,0,.77-.74.53.53,0,0,0,0-.45,3.54,3.54,0,0,0-.38-.44,2.23,2.23,0,0,1-.55-.56,1.4,1.4,0,0,1-.19-.79,3.31,3.31,0,0,1,.12-.81Zm1-12.44a3,3,0,0,0-1-.68,3.55,3.55,0,0,0-1.51-.31,3.78,3.78,0,0,0-2.13.62,4.3,4.3,0,0,0-1.44,1.56,4.16,4.16,0,0,0-.5,1.92.61.61,0,0,0,0,.14,3.59,3.59,0,0,0,.34,1.36,3.3,3.3,0,0,0,.68,1,3.34,3.34,0,0,0,2.46,1h.1a3.79,3.79,0,0,0,1.39-.28,3.89,3.89,0,0,0,1.59-1.16,3.63,3.63,0,0,0,.5-.73,4,4,0,0,0,.52-2A3.21,3.21,0,0,0,142.39,32.08Z"/><path class="cls-1" d="M159.72,40.46a1.82,1.82,0,0,0-1.14-.31h-2.05l.54-1.78a3.9,3.9,0,0,0,.16-1.1v0c0-1.13-.75-1.73-2.18-1.79a1.1,1.1,0,0,0-.26,0,6.6,6.6,0,0,0-2.77.5,9.23,9.23,0,0,0-2.34,1.79l-2.44,2.44h-2.17a3.49,3.49,0,0,0-1.59.27,1.29,1.29,0,0,0-.65.75,2.42,2.42,0,0,1,.31,1.17,6.75,6.75,0,0,0,.61.64,6.1,6.1,0,0,1,1,1.12,2.33,2.33,0,0,1,.36,1.32,3.9,3.9,0,0,1-.19,1l-2.48,7.67a5.75,5.75,0,0,0-.28,2.45,3.8,3.8,0,0,0,1.56,2.69A6.78,6.78,0,0,0,148,60.48a12.19,12.19,0,0,0,4.45-.79l.1,0a10,10,0,0,0,3.1-1.86c.79-.74,1.17-1.37,1.14-1.88a.73.73,0,0,0-.13-.45.39.39,0,0,0-.2-.13.46.46,0,0,0-.21,0,3.31,3.31,0,0,0-.81.12,11.54,11.54,0,0,1-1.55.15,2,2,0,0,1-1-.19l-.14-.08a1.12,1.12,0,0,1-.38-1,3.72,3.72,0,0,1,.19-1.2l.19-.62,2.71-8.94h2.25a2.19,2.19,0,0,0,2.32-1.71,3.3,3.3,0,0,0,.08-.54A1,1,0,0,0,159.72,40.46Z"/><path class="cls-2" d="M26.9,66.75a5.07,5.07,0,0,0-.87-2,3.23,3.23,0,0,0-2.73-1.38,3.46,3.46,0,0,0-2.22.8,4.6,4.6,0,0,0-1.45,2.33,7.11,7.11,0,0,0-.31,2.17A7,7,0,0,0,21.69,74l0,0v0a15.4,15.4,0,0,1-1.81,3.57,6.06,6.06,0,0,1-.67.77,1.48,1.48,0,0,1-1,.49c-.39,0-.62-.33-.7-1l-1.16-8.52A12.76,12.76,0,0,0,16,67a6.22,6.22,0,0,0-1.07-2.19,4.42,4.42,0,0,0-3.66-1.47,6.85,6.85,0,0,0-4.41,1.52,7.74,7.74,0,0,0-2.6,3.74A3.88,3.88,0,0,0,4,69.75c0,.45.1.67.31.67a1.14,1.14,0,0,0,.52-.27,1.09,1.09,0,0,1,.64-.27.67.67,0,0,1,.56.29,2.45,2.45,0,0,1,.32,1,.2.2,0,0,1,0,0l.33,2,1.22,7.42a5.65,5.65,0,0,0,1.3,3.08,3.54,3.54,0,0,0,.85.65,6.07,6.07,0,0,0,2.07.7,7.84,7.84,0,0,1-1.37,1.07,6.34,6.34,0,0,1-2.43,1,6.48,6.48,0,0,1-.77.09,8.58,8.58,0,0,0-.19-1,5.53,5.53,0,0,0-1.26-2.39,3.84,3.84,0,0,0-2.92-1.22,3.23,3.23,0,0,0-1.94.58A3.11,3.11,0,0,0,.11,84.91a4.75,4.75,0,0,0-.2,1.26,4.5,4.5,0,0,0,.76,2.49A4.67,4.67,0,0,0,2,90a5.19,5.19,0,0,0,.89.52,7.86,7.86,0,0,0,3.46.69,15.2,15.2,0,0,0,8.15-2.55,26.67,26.67,0,0,0,7.25-6.78,28.86,28.86,0,0,0,4.59-9,15.21,15.21,0,0,0,.73-4.41A8.52,8.52,0,0,0,26.9,66.75Z"/><path class="cls-2" d="M51.67,68.62a6.74,6.74,0,0,0-2.13-3.12q-2.49-2.13-7.76-2.13a16,16,0,0,0-6.41,1.3,14.38,14.38,0,0,0-5.08,3.64A12.66,12.66,0,0,0,29,70.11a12.39,12.39,0,0,0-1.47,3.56,13,13,0,0,0-.31,2.68,8.1,8.1,0,0,0,.25,2.07,6.74,6.74,0,0,0,2.13,3.47l.19.17q2.58,2.14,8,2.15A15.52,15.52,0,0,0,44,82.91,13.49,13.49,0,0,0,49,79.23a13.05,13.05,0,0,0,2.75-5.56A12.19,12.19,0,0,0,52,71.08,7.74,7.74,0,0,0,51.67,68.62ZM37.56,80.84a1,1,0,0,1-.74-.29,1.76,1.76,0,0,1-.27-1.14,22.78,22.78,0,0,1,1.24-5.66,25.79,25.79,0,0,1,2.15-5.48c.6-1,1.18-1.45,1.72-1.45a.87.87,0,0,1,.72.31,1.9,1.9,0,0,1,.25,1.12,12,12,0,0,1-.38,2.57c-.2.83-.47,1.8-.82,2.89a31.1,31.1,0,0,1-2.19,5.73,4,4,0,0,1-.32.48C38.45,80.58,38,80.88,37.56,80.84Z"/><path class="cls-2" d="M77.58,64.23a5.26,5.26,0,0,0-3.31-.86,15.68,15.68,0,0,0-4.61.68c-1.47.45-2.27,1-2.4,1.57a.69.69,0,0,0,0,.62,2.26,2.26,0,0,0,.54.53,3.9,3.9,0,0,1,.54.53,1.08,1.08,0,0,1,.19.68,1.76,1.76,0,0,1-.11.58L66.1,76.35a5.87,5.87,0,0,1-.46.84s0,0,0,0a2.26,2.26,0,0,1-.46.56,1.69,1.69,0,0,1-1.2.44,1.13,1.13,0,0,1-.82-.29,1,1,0,0,1-.31-.8,2.2,2.2,0,0,1,.16-.81l2.44-8.06a5.35,5.35,0,0,0,.26-1.54.86.86,0,0,0,0-.16,2.82,2.82,0,0,0-1-2.32,5.14,5.14,0,0,0-3.29-.86,15.68,15.68,0,0,0-4.61.68c-1.47.45-2.28,1-2.44,1.57a.76.76,0,0,0,0,.62,2.71,2.71,0,0,0,.54.53,2.82,2.82,0,0,1,.58.53,1.08,1.08,0,0,1,.2.68,1.81,1.81,0,0,1-.12.58L54,73.6l-.94,3.06a7.17,7.17,0,0,0-.38,2.24,5.6,5.6,0,0,0,0,.6,4.26,4.26,0,0,0,1.81,3.14l.24.16A7.58,7.58,0,0,0,59.09,84a7.8,7.8,0,0,0,3.42-.81,9.3,9.3,0,0,0,2.86-2.1l.22-.23a2.58,2.58,0,0,0,.1.33,4.12,4.12,0,0,0,1.65,2.1,6.23,6.23,0,0,0,3.64.94,7.39,7.39,0,0,0,3.29-.71,5.88,5.88,0,0,0,2.28-1.75,3.38,3.38,0,0,0,.78-2.15,1.27,1.27,0,0,0-.14-.6.38.38,0,0,0-.33-.25c-.08,0-.22.13-.44.4a1,1,0,0,1-.8.41.54.54,0,0,1-.37-.15.65.65,0,0,1-.13-.43,2.1,2.1,0,0,1,.08-.46l3.13-10.27a6.2,6.2,0,0,0,.3-1.54,1.34,1.34,0,0,0,0-.21A2.75,2.75,0,0,0,77.58,64.23Z"/><path class="cls-2" d="M102.47,67.08a4.45,4.45,0,0,0-1.23-2.39,4.65,4.65,0,0,0-3.47-1.32,5.67,5.67,0,0,0-4.88,2.75,3.29,3.29,0,0,0-1.35-2,4.56,4.56,0,0,0-2.64-.72,15.61,15.61,0,0,0-4.6.68c-1.48.45-2.29,1-2.44,1.57a.72.72,0,0,0,0,.62,2.55,2.55,0,0,0,.55.53,5.53,5.53,0,0,1,.56.59,1.15,1.15,0,0,1,.17.66,1.61,1.61,0,0,1-.07.54L79.65,79.75A3.44,3.44,0,0,1,79,81.11a3.71,3.71,0,0,1-1,.74,1.67,1.67,0,0,0-.71.6,1,1,0,0,0-.1.21.77.77,0,0,0,.33.86,2.4,2.4,0,0,0,1.45.34H88.9a4.44,4.44,0,0,0,1.65-.23,1,1,0,0,0,.56-.74.64.64,0,0,0-.11-.5,2.86,2.86,0,0,0-.62-.51,4,4,0,0,1-.8-.63,1.26,1.26,0,0,1-.29-.84,1.71,1.71,0,0,1,.08-.58l3-9.68a2.84,2.84,0,0,1,.52-1.08.91.91,0,0,1,.68-.32.81.81,0,0,1,.62.32,4.18,4.18,0,0,1,.58,1,6.24,6.24,0,0,0,1.34,1.87,3.13,3.13,0,0,0,2.22.7,4.06,4.06,0,0,0,2.6-.85,4.29,4.29,0,0,0,1.47-2.44,5.83,5.83,0,0,0,.16-1.36A4.83,4.83,0,0,0,102.47,67.08Z"/><path class="cls-2" d="M123.08,65.23a9,9,0,0,0-3.6-1.62,22.67,22.67,0,0,0-5.56-.59q-4.87,0-7.53,1.88a5.94,5.94,0,0,0-2.5,3.62,6.76,6.76,0,0,0-.15,1.44,4.22,4.22,0,0,0,.64,2.33h0l.15.2a6.42,6.42,0,0,0,1.29,1.36,7.17,7.17,0,0,0,.63.45,24.78,24.78,0,0,0,2.86,1.53A17.73,17.73,0,0,1,112,77.37a2,2,0,0,1,.89,1.53,2.59,2.59,0,0,1-.1.71,1.83,1.83,0,0,1-.55.8,2.56,2.56,0,0,1-1.67.55h0a6.63,6.63,0,0,1-1.77-.25,4.75,4.75,0,0,0,.12-1,4.84,4.84,0,0,0,0-.53,3.82,3.82,0,0,0-1.29-2.47l-.06,0-.15-.12a4.81,4.81,0,0,0-3.16-1.08,4,4,0,0,0-2.67.85,3.11,3.11,0,0,0-1,2.52,3.8,3.8,0,0,0,2,3.27,9,9,0,0,0,1,.56A20.09,20.09,0,0,0,111.83,84a15.91,15.91,0,0,0,7.44-1.5,6.27,6.27,0,0,0,3.44-4.1,8.87,8.87,0,0,0,.16-1.16,5.68,5.68,0,0,0-.05-.72,4,4,0,0,0-.82-1.85,7.22,7.22,0,0,0-1.26-1.21,7.74,7.74,0,0,0-.87-.58c-.43-.24-.91-.5-1.45-.76s-1.11-.53-1.75-.81c-.86-.39-1.58-.76-2.16-1.08a12.36,12.36,0,0,1-1.09-.66,2,2,0,0,1-1-1.7,1.47,1.47,0,0,1,.6-1.32,2.5,2.5,0,0,1,1.14-.44,3.59,3.59,0,0,1,.47,0,5.13,5.13,0,0,1,1.24.19,3,3,0,0,0-.16,1,2.68,2.68,0,0,0,.7,1.84,3.36,3.36,0,0,0,.64.6,4.56,4.56,0,0,0,.67.4,5.82,5.82,0,0,0,2.6.56,4.6,4.6,0,0,0,3-.85,2.65,2.65,0,0,0,1.06-2.09.49.49,0,0,0,0-.12A3,3,0,0,0,123.08,65.23Z"/><path class="cls-2" d="M146.51,67.83a4.81,4.81,0,0,0-2.11-3.08q-2.21-1.57-7.13-1.58a13.07,13.07,0,0,0-8,2.43,10.1,10.1,0,0,0-3.19,4,14.14,14.14,0,0,0-1.05,3.22c0,.07,0,.14,0,.19a14.11,14.11,0,0,0-.28,2.53,7.64,7.64,0,0,0,2.48,6.09,3,3,0,0,0,.27.23,11.1,11.1,0,0,0,7,2.17,10.66,10.66,0,0,0,5-1.06,8.39,8.39,0,0,0,2.7-2,4.61,4.61,0,0,0,.4-.5,4.75,4.75,0,0,0,1-2.84.75.75,0,0,0,0-.23.36.36,0,0,0-.39-.28,5.7,5.7,0,0,0-1.47.38c-.46.16-.88.29-1.25.4l-.92.25a7.47,7.47,0,0,1-1.78.2,6.33,6.33,0,0,1-2.22-.33,3.34,3.34,0,0,1-.92-.48,3.17,3.17,0,0,1-1.09-2.82,19.69,19.69,0,0,0,2.38.21c.34,0,.68,0,1,0l.89,0h0a15.61,15.61,0,0,0,5.36-1.09,5.05,5.05,0,0,0,3.23-3.66,5.72,5.72,0,0,0,.15-1.36A4.7,4.7,0,0,0,146.51,67.83Zm-12.26,4.53a1.56,1.56,0,0,1-.42,0,17.43,17.43,0,0,1,.94-3.21,7.71,7.71,0,0,1,1.15-2c.38-.45.72-.68,1-.68s.6.36.62,1.09a6.43,6.43,0,0,1-.81,3.37A2.71,2.71,0,0,1,134.25,72.36Z"/><path class="cls-1" d="M140.48,77.82l-.92.25a7.47,7.47,0,0,1-1.78.2,6.33,6.33,0,0,1-2.22-.33c0-.1,0-.2,0-.3a22.91,22.91,0,0,0,3.41.24C139.48,77.88,140,77.86,140.48,77.82Z"/><path class="cls-2" d="M161.5,56.09a5.3,5.3,0,0,0-3.32-.85,16.8,16.8,0,0,0-1.75.09,14.39,14.39,0,0,0-2.85.57c-1.48.44-2.29,1-2.44,1.55a.68.68,0,0,0,.05.62,4.44,4.44,0,0,0,.57.54,2.9,2.9,0,0,1,.56.54,1,1,0,0,1,.2.5,1.21,1.21,0,0,1,0,.2,1.76,1.76,0,0,1-.12.57l-5.88,19.33a3.44,3.44,0,0,1-.66,1.36c-.1.1-.21.21-.33.31a4.46,4.46,0,0,1-.64.43,1.51,1.51,0,0,0-.81.81.71.71,0,0,0,.31.86s0,0,.08,0a2.62,2.62,0,0,0,1.39.29h8.83a5.5,5.5,0,0,0,1.78-.23,1.28,1.28,0,0,0,.77-.74.5.5,0,0,0,0-.44,2.72,2.72,0,0,0-.39-.45,2.56,2.56,0,0,1-.54-.56,1.4,1.4,0,0,1-.2-.79,3.31,3.31,0,0,1,.12-.82l6.08-19.75a5.14,5.14,0,0,0,.26-1.5,1,1,0,0,0,0-.16A2.83,2.83,0,0,0,161.5,56.09Z"/><path class="cls-2" d="M182,56.5a12.18,12.18,0,0,0-6.22-1.26c-3.17,0-5.57.45-7.18,1.36a6.57,6.57,0,0,0-3.16,3.32,6.48,6.48,0,0,0-.34,2,7.21,7.21,0,0,0,.27,1.94H164a4.07,4.07,0,0,0-1.77.3,1,1,0,0,0-.52,1,.9.9,0,0,0,.21.6,3.84,3.84,0,0,0,.64.59c.2.17.37.32.52.47a4.27,4.27,0,0,1,.47.53,1.3,1.3,0,0,1,.2.39,2.3,2.3,0,0,1,.13.83v.13a4,4,0,0,1-.2,1.07l-3,9.91a3.44,3.44,0,0,1-.66,1.36,3.71,3.71,0,0,1-1,.74,1.51,1.51,0,0,0-.8.8h0s0,0,0,0a.72.72,0,0,0,.32.83,2.49,2.49,0,0,0,1.47.34h8.83a5.46,5.46,0,0,0,1.78-.23,1.33,1.33,0,0,0,.78-.74.5.5,0,0,0,0-.44A2.72,2.72,0,0,0,171,82a2.56,2.56,0,0,1-.54-.56,1.4,1.4,0,0,1-.19-.79,3.79,3.79,0,0,1,.11-.82l3.84-12.54h1.16a4.38,4.38,0,0,0,2.11-.41l0,0a2.05,2.05,0,0,0,.95-1.28,2.21,2.21,0,0,0,.07-.46c0-.83-.67-1.24-2-1.24h-2.28a1.05,1.05,0,0,1-.95-.53A2.71,2.71,0,0,1,173,61.9a6.29,6.29,0,0,1,.23-1.59,3.69,3.69,0,0,1,1.11-1.85l.09-.06a3.18,3.18,0,0,1,1.94-.56,3.11,3.11,0,0,0-.22.45,2.92,2.92,0,0,0-.29,1.25,2.75,2.75,0,0,0,.64,1.82,4.43,4.43,0,0,0,.37.39,3,3,0,0,0,1,.59,5,5,0,0,0,1.83.3,5.75,5.75,0,0,0,3.19-.8,2.52,2.52,0,0,0,1.22-2.26v0A3.66,3.66,0,0,0,182,56.5Z"/><path class="cls-1" d="M176.35,57.84a3.11,3.11,0,0,0-.22.45c-.64,0-1.25.09-1.81.17l.09-.06A3.18,3.18,0,0,1,176.35,57.84Z"/><path class="cls-2" d="M96.07,29.37a5.24,5.24,0,0,0-3.31-.87,16.06,16.06,0,0,0-4.61.67c-1.47.44-2.28,1-2.44,1.54a.73.73,0,0,0,.06.63,3.67,3.67,0,0,0,.56.54,3.24,3.24,0,0,1,.56.54,1.09,1.09,0,0,1,.22.7,1.92,1.92,0,0,1-.12.58L85.68,38a6.9,6.9,0,0,0-2.15-1.16,9.17,9.17,0,0,0-2.85-.39,8.5,8.5,0,0,0-5.46,1.92,12.77,12.77,0,0,0-3.74,5,16.72,16.72,0,0,0-1.33,6.64,7.53,7.53,0,0,0,.91,3.74,6.49,6.49,0,0,0,1.49,1.85,6.59,6.59,0,0,0,1,.69,6.49,6.49,0,0,0,3.31.89,6.59,6.59,0,0,0,2.86-.66,6.67,6.67,0,0,0,2-1.54l.39-.47a3.28,3.28,0,0,0,.37.62,4.43,4.43,0,0,0,1.61,1.3,7.16,7.16,0,0,0,3.37.75,6.61,6.61,0,0,0,3-.7,6.33,6.33,0,0,0,2.23-1.78,4.26,4.26,0,0,0,.67-1.25,2.78,2.78,0,0,0,.12-.88,1.52,1.52,0,0,0-.12-.62c-.07-.18-.18-.27-.31-.27s-.18.1-.35.3l-.09.11a1,1,0,0,1-.8.4.53.53,0,0,1-.54-.58,2.18,2.18,0,0,1,.08-.42l1.18-3.87v0l.88-2.9s0,0,0,0l3.47-11.39a5.14,5.14,0,0,0,.26-1.5.91.91,0,0,0,0-.17A2.79,2.79,0,0,0,96.07,29.37ZM81.84,50.46a3.83,3.83,0,0,1-.66,1.35A1.19,1.19,0,0,1,81,52a1.05,1.05,0,0,1-.65.21c-.93,0-1.39-.71-1.39-2.13a14.65,14.65,0,0,1,.62-4.25,14.53,14.53,0,0,1,1.74-4c.72-1.11,1.46-1.67,2.21-1.67a2,2,0,0,1,1.35.54l-1.07,3.46Z"/><path class="cls-2" d="M116.83,41.9a6.82,6.82,0,0,0-2.13-3.13q-2.49-2.12-7.76-2.12a16,16,0,0,0-6.41,1.29A15,15,0,0,0,98,39.37a13.47,13.47,0,0,0-2.5,2.21,12.55,12.55,0,0,0-2,3.17s0,0,0,0A12.16,12.16,0,0,0,92.65,47c-.05.25-.1.47-.14.72v0a12.31,12.31,0,0,0-.17,1.93,8.25,8.25,0,0,0,.34,2.43,7,7,0,0,0,.66,1.47l.21.33a7.52,7.52,0,0,0,1.09,1.25l.08.07a2.31,2.31,0,0,1,.19.16,5.61,5.61,0,0,0,.55.41c1.71,1.17,4.18,1.74,7.41,1.74a15.2,15.2,0,0,0,6.33-1.31,13.36,13.36,0,0,0,4.94-3.67A13,13,0,0,0,116.89,47a12.2,12.2,0,0,0,.31-2.6A7.68,7.68,0,0,0,116.83,41.9ZM102.72,54.11a.94.94,0,0,1-.74-.29,1.73,1.73,0,0,1-.27-1.15A22.91,22.91,0,0,1,103,47a25.19,25.19,0,0,1,2.15-5.47c.6-1,1.18-1.46,1.72-1.46a.9.9,0,0,1,.72.31,1.9,1.9,0,0,1,.25,1.12,12.09,12.09,0,0,1-.38,2.58c-.2.82-.47,1.8-.82,2.89a30.61,30.61,0,0,1-2.19,5.72c-.11.19-.22.36-.32.5C103.61,53.85,103.16,54.15,102.72,54.11Z"/><path class="cls-1" d="M94.64,55.1l0,.06a1,1,0,0,1-.8.4.53.53,0,0,1-.54-.58,2.18,2.18,0,0,1,.08-.42l.22-.71A7.52,7.52,0,0,0,94.64,55.1Z"/><path class="cls-2" d="M139.4,38.63a2.6,2.6,0,0,0-.83-1.13,4.25,4.25,0,0,0-2.41-.81,8.26,8.26,0,0,0-.88,0,15.61,15.61,0,0,0-4.6.67c-1.48.45-2.29,1-2.45,1.57a.72.72,0,0,0,0,.61,2.57,2.57,0,0,0,.55.56,2.77,2.77,0,0,1,.58.52,1,1,0,0,1,.19.67,1.92,1.92,0,0,1-.12.59L126.1,53a2.91,2.91,0,0,1-1.62,2.1,1.53,1.53,0,0,0-.81.8.73.73,0,0,0,.31.88,2.55,2.55,0,0,0,1.47.33h8.83a5,5,0,0,0,1.78-.23,1.28,1.28,0,0,0,.77-.74.53.53,0,0,0,0-.45,3.54,3.54,0,0,0-.38-.44,2.23,2.23,0,0,1-.55-.56,1.4,1.4,0,0,1-.19-.79,3.31,3.31,0,0,1,.12-.81l3.56-11.59a5.29,5.29,0,0,0,.26-1.54.92.92,0,0,0,0-.16A3,3,0,0,0,139.4,38.63Zm2-7.23a3.12,3.12,0,0,0-1-2.32,3.44,3.44,0,0,0-2.51-1,3.78,3.78,0,0,0-2.13.62,4.3,4.3,0,0,0-1.44,1.56,4.16,4.16,0,0,0-.5,1.92,3.5,3.5,0,0,0,1,2.46,3.26,3.26,0,0,0,1,.68,3.41,3.41,0,0,0,1.48.31,3.9,3.9,0,0,0,2.11-.6,4.13,4.13,0,0,0,1.47-1.58,4,4,0,0,0,.52-2A.28.28,0,0,0,141.39,31.4Z"/><path class="cls-2" d="M157.72,37.46a1.24,1.24,0,0,0-.49-.23,2.14,2.14,0,0,0-.65-.08h-2.05l.52-1.71,0-.07a3.9,3.9,0,0,0,.16-1.1c0-1.22-.82-1.85-2.44-1.85a6.6,6.6,0,0,0-2.77.5,9.23,9.23,0,0,0-2.34,1.79l-2.44,2.44h-2.17a4.93,4.93,0,0,0-.69,0,2.11,2.11,0,0,0-.9.23,1.27,1.27,0,0,0-.66.78l0,.15a1.1,1.1,0,0,0,.15.72,4.88,4.88,0,0,0,.81.91,6.1,6.1,0,0,1,1,1.12l.05.07a2.42,2.42,0,0,1,.31,1.17v.08a3.9,3.9,0,0,1-.19,1l-2.48,7.67a5.71,5.71,0,0,0-.31,1.86,3.87,3.87,0,0,0,1.59,3.28,3.19,3.19,0,0,0,.44.31,7.34,7.34,0,0,0,3.78.9,12.19,12.19,0,0,0,4.45-.79,10.75,10.75,0,0,0,2.49-1.32,6.87,6.87,0,0,0,.71-.58c.79-.74,1.17-1.37,1.14-1.88a.73.73,0,0,0-.13-.45.51.51,0,0,0-.41-.17,3.31,3.31,0,0,0-.81.12l-.64.09a8.12,8.12,0,0,1-.91.06,2,2,0,0,1-1.09-.27,1.12,1.12,0,0,1-.38-1,3.72,3.72,0,0,1,.19-1.2l2.9-9.56h2.25a2.47,2.47,0,0,0,1.46-.41,2.36,2.36,0,0,0,.86-1.3,3.3,3.3,0,0,0,.08-.54A1,1,0,0,0,157.72,37.46Z"/></svg>